<?xml version="1.0" standalone="no"?>
<!DOCTYPE svg PUBLIC "-//W3C//DTD SVG 20010904//EN"
 "http://www.w3.org/TR/2001/REC-SVG-20010904/DTD/svg10.dtd">
<svg version="1.0" xmlns="http://www.w3.org/2000/svg"
 width="734.000000pt" height="734.000000pt" viewBox="0 0 734.000000 734.000000"
 preserveAspectRatio="xMidYMid meet">

<g transform="translate(0.000000,734.000000) scale(0.100000,-0.100000)"
fill="#000000" stroke="none">
<path d="M3087 7293 c-36 -312 -29 -285 -98 -351 -54 -51 -119 -98 -119 -87 0
2 11 21 25 41 18 26 22 40 14 45 -11 6 11 76 56 177 24 52 36 118 26 144 l-8
23 -8 -25 c-41 -139 -112 -313 -149 -365 -25 -35 -59 -95 -86 -152 -10 -24
-24 -43 -30 -43 -5 0 -10 -8 -10 -19 0 -25 -39 -73 -55 -68 -17 7 -29 -3 -47
-43 -29 -62 -75 -117 -104 -124 -16 -4 -47 -16 -71 -27 -23 -10 -46 -19 -51
-19 -6 0 -13 -11 -16 -24 -4 -15 -14 -26 -29 -28 -16 -2 -23 -11 -25 -31 -3
-21 -8 -27 -20 -23 -11 4 -26 -5 -42 -24 -14 -17 -30 -30 -36 -30 -7 0 -14 -9
-17 -21 -3 -12 -10 -18 -16 -15 -13 8 -39 -30 -52 -76 -7 -28 -16 -39 -36 -44
-14 -4 -34 -14 -44 -23 -38 -35 -49 -41 -68 -41 -17 0 -104 -62 -150 -108 -20
-20 -61 -81 -61 -92 0 -5 -6 -13 -14 -17 -19 -11 -66 -83 -66 -102 0 -9 -19
-25 -43 -36 -43 -20 -100 -54 -128 -77 -9 -7 -24 -18 -35 -24 -10 -7 -18 -20
-16 -30 1 -11 -6 -37 -17 -59 -10 -22 -37 -79 -59 -126 -22 -47 -63 -116 -91
-154 -28 -37 -51 -77 -51 -89 0 -12 -9 -35 -19 -52 -12 -20 -17 -41 -13 -60 5
-32 5 -65 -1 -234 -3 -63 -10 -134 -16 -158 -7 -24 -9 -52 -6 -62 3 -11 -1
-30 -9 -43 -19 -28 -23 -91 -8 -127 11 -28 8 -79 -9 -151 -5 -25 -9 -92 -7
-150 2 -57 0 -116 -4 -131 -5 -21 -3 -28 8 -28 8 0 13 -4 10 -9 -4 -5 -1 -11
6 -13 9 -3 9 -15 -1 -51 -8 -26 -17 -44 -22 -41 -5 2 -12 -8 -15 -23 -4 -15
-14 -34 -21 -42 -16 -16 -12 -35 8 -37 41 -3 43 -5 19 -19 -19 -11 -21 -14 -7
-15 11 0 17 -8 17 -24 0 -31 -10 -56 -22 -56 -5 0 -25 -12 -44 -27 -33 -28
-47 -74 -25 -87 12 -8 2 -48 -15 -62 -10 -8 -13 -38 -11 -123 1 -66 -2 -113
-8 -116 -6 -3 -6 -7 1 -10 6 -3 9 -35 6 -83 -5 -116 -4 -131 13 -154 l15 -22
0 22 c0 12 5 22 10 22 6 0 10 11 10 25 0 14 5 25 10 25 12 0 13 -60 1 -79 -6
-10 -4 -25 5 -43 10 -20 13 -43 8 -80 -6 -41 -4 -49 6 -43 8 5 11 4 7 -3 -11
-17 4 -42 24 -42 10 0 19 6 19 14 0 7 13 19 29 25 20 9 32 24 40 50 10 35 36
70 45 60 2 -2 6 -21 10 -42 5 -27 4 -37 -3 -32 -6 3 -11 2 -11 -3 0 -6 6 -12
13 -15 10 -4 13 -21 10 -63 -3 -56 -13 -90 -13 -44 0 19 -2 20 -15 10 -11 -9
-15 -37 -17 -109 0 -53 -3 -80 -5 -61 -7 61 -24 61 -22 0 1 -30 -4 -68 -10
-83 -6 -16 -11 -40 -10 -55 l0 -27 12 25 11 25 4 -28 c2 -16 -4 -49 -12 -74
-20 -59 -21 -80 -3 -61 7 7 17 22 22 33 8 19 9 19 12 -3 3 -14 12 -22 24 -22
13 0 19 -7 20 -22 0 -13 3 -17 6 -10 6 16 19 16 22 0 1 -7 5 -40 10 -73 4 -33
9 -47 10 -31 1 21 5 27 16 22 12 -4 15 4 15 39 0 24 4 46 9 49 12 8 25 -114
13 -126 -5 -5 -7 -19 -4 -31 5 -20 6 -20 18 8 13 29 13 28 16 -30 2 -68 5
-114 7 -132 0 -7 8 -10 18 -6 12 5 15 2 10 -10 -3 -9 -2 -27 3 -39 6 -16 9
-18 9 -7 1 9 8 20 16 23 12 4 14 2 7 -10 -5 -8 -6 -29 -4 -45 4 -25 8 -30 24
-26 14 4 18 2 14 -10 -3 -8 -6 -29 -7 -46 0 -25 -2 -28 -8 -13 -7 18 -8 18
-14 2 -12 -30 -8 -94 6 -99 9 -4 9 -6 0 -6 -7 -1 -13 -8 -13 -16 0 -8 5 -14
12 -12 16 3 27 -68 24 -150 -3 -71 2 -83 39 -83 18 1 19 1 3 11 -10 5 -18 15
-18 20 0 6 4 8 8 5 5 -3 18 3 30 14 12 11 23 16 26 12 2 -4 1 -39 -4 -77 -5
-39 -9 -76 -10 -83 0 -7 -4 -11 -9 -8 -8 6 -26 -40 -22 -57 1 -5 -4 -5 -10 -1
-9 5 -10 2 -6 -10 4 -10 7 -22 7 -27 0 -5 7 -9 15 -9 11 0 13 -8 9 -32 -8 -44
-27 -88 -38 -88 -10 0 -46 40 -46 52 0 4 -7 8 -15 8 -9 0 -25 9 -36 19 -18 17
-20 31 -20 131 1 61 6 120 12 131 5 11 8 25 5 32 -3 9 -5 9 -5 0 -1 -7 -8 -10
-17 -6 -9 3 -20 0 -25 -8 -7 -11 -9 -11 -9 4 0 25 -15 21 -42 -11 -13 -15 -30
-31 -39 -34 -48 -19 -174 -237 -185 -320 -4 -29 -15 -73 -25 -98 -17 -39 -19
-65 -16 -185 3 -77 9 -153 16 -168 6 -16 11 -49 11 -74 0 -36 5 -51 25 -69 27
-25 31 -48 15 -90 -12 -31 -60 -91 -60 -75 0 18 -16 12 -17 -6 0 -10 -2 -50
-4 -90 -4 -65 -5 -70 -22 -61 -28 15 -41 57 -30 100 7 26 7 39 -1 42 -6 2 -3
5 7 5 9 1 17 7 17 15 0 8 4 16 9 18 4 2 11 23 14 47 3 29 2 40 -4 34 -10 -10
-17 -32 -18 -60 -1 -7 -7 -13 -15 -13 -7 0 -16 -9 -19 -20 -8 -32 -27 -23 -27
14 0 18 -6 39 -14 46 -12 9 -19 4 -36 -30 -11 -22 -18 -44 -16 -49 3 -4 -1
-17 -9 -27 -13 -18 -14 -17 -15 14 0 18 5 41 12 52 10 15 9 23 -6 39 -17 19
-19 34 -14 138 6 144 -4 77 -27 -187 -9 -102 -14 -202 -10 -223 l7 -37 79 0
c46 0 79 4 79 10 0 6 9 10 19 10 11 0 23 -4 26 -10 3 -5 23 -10 43 -10 l37 0
0 78 c0 93 25 163 57 158 28 -4 38 -24 38 -78 0 -42 3 -49 29 -62 29 -16 58
-67 46 -85 -4 -7 14 -11 54 -11 48 0 61 3 61 15 0 25 29 63 65 85 l33 20 47
-20 c58 -25 76 -42 64 -61 -12 -19 -11 -39 1 -39 5 0 7 8 4 18 -5 16 -5 16 9
0 13 -16 55 -17 530 -18 508 0 516 0 522 20 3 11 14 20 22 20 9 0 13 -3 10 -7
-13 -12 28 -32 66 -33 35 0 37 2 38 33 1 17 1 39 0 48 -2 18 70 70 100 72 10
1 19 7 19 14 0 7 5 13 11 13 6 0 9 -6 6 -14 -3 -8 3 -22 14 -32 11 -10 19 -12
19 -6 0 7 -5 12 -11 12 -5 0 -7 5 -4 10 5 8 11 7 21 -1 11 -9 17 -9 29 1 8 7
15 9 15 4 0 -4 5 -3 12 4 17 17 48 15 48 -2 0 -12 6 -13 33 -3 17 6 52 11 77
12 25 0 51 5 58 9 10 6 11 1 6 -20 -5 -20 -4 -25 6 -19 7 4 28 11 46 15 26 6
36 4 43 -8 8 -13 11 -12 22 6 8 12 20 22 27 22 7 0 15 6 18 14 8 22 54 48 81
48 14 1 27 7 30 15 4 10 9 11 18 3 13 -11 45 -4 45 10 0 5 9 6 21 3 18 -5 20
-11 15 -44 -4 -23 -2 -39 4 -39 5 0 12 -11 16 -25 5 -22 9 -24 22 -13 13 11
14 10 8 -10 -10 -29 10 -29 25 0 8 14 14 18 17 10 5 -15 32 -16 32 -1 0 5 5 7
10 4 6 -4 20 5 31 19 22 28 48 33 67 14 9 -9 12 -9 12 0 0 7 9 12 20 12 11 0
23 7 26 15 12 30 24 14 24 -32 l1 -48 19 24 c11 13 20 36 20 52 0 22 6 32 25
39 14 5 25 14 25 20 0 15 16 12 34 -6 15 -14 17 -13 25 8 l9 23 10 -25 c10
-24 11 -24 11 -2 1 39 81 85 81 46 0 -12 5 -10 19 7 l20 24 9 -25 c9 -23 10
-24 17 -5 12 38 22 50 49 63 38 19 48 12 31 -22 -8 -15 -15 -36 -15 -46 0 -9
-9 -21 -19 -26 -21 -10 -111 -117 -111 -133 0 -5 -6 -16 -14 -24 -8 -8 -19
-30 -24 -48 -4 -19 -15 -34 -23 -35 -29 -2 -69 -16 -69 -25 0 -5 125 -9 285
-9 l284 0 16 52 c8 28 13 54 10 56 -8 8 -45 -30 -45 -46 0 -13 -3 -12 -14 3
-8 12 -11 34 -8 64 7 68 -8 43 -18 -29 -9 -66 -15 -79 -29 -64 -9 10 5 184 18
225 5 14 6 38 4 53 -5 23 -10 27 -29 23 -16 -3 -22 1 -22 12 0 9 -4 53 -8 99
-5 56 -4 82 4 82 6 0 13 -10 15 -23 4 -19 4 -18 6 6 0 15 5 27 9 27 14 0 49
-53 103 -157 28 -54 55 -102 59 -108 9 -12 39 -83 80 -192 l31 -83 180 0 c98
0 179 3 179 8 0 4 3 181 7 395 6 385 6 387 -14 387 -11 0 -36 6 -54 14 -39 16
-119 29 -169 28 -27 -1 -40 5 -54 25 -17 23 -18 31 -7 92 7 36 21 84 31 106
10 22 16 43 14 47 -3 5 0 8 5 8 6 0 11 9 11 19 0 11 4 21 9 23 5 1 12 26 16
53 l8 50 -22 -19 c-11 -11 -21 -25 -21 -33 0 -8 -6 -13 -12 -11 -15 3 -58 -32
-58 -47 0 -6 -7 -21 -16 -34 -15 -21 -18 -22 -26 -7 -6 10 -16 15 -28 11 -14
-4 -19 1 -23 27 -3 18 -8 44 -13 57 -5 17 -4 22 4 17 17 -10 15 -1 -8 36 -15
25 -19 43 -15 73 4 27 -1 58 -15 95 -22 60 -24 74 -11 66 14 -9 19 51 6 75
-18 33 -3 74 19 52 14 -14 36 -11 37 5 6 126 5 192 -6 219 -8 17 -11 34 -7 37
3 3 0 6 -6 6 -7 0 -12 11 -12 24 0 14 -5 37 -11 53 -5 15 -13 46 -16 68 -3 22
-11 55 -19 74 -8 18 -14 42 -14 53 0 19 -83 108 -101 108 -5 0 -9 6 -9 13 0 6
-13 25 -30 40 -16 16 -30 35 -30 43 0 8 -5 14 -11 14 -5 0 -8 4 -5 9 3 5 -1
12 -10 15 -22 8 -21 9 -28 -16 -3 -13 -9 -19 -13 -13 -12 15 -69 45 -86 45
-20 0 -65 54 -83 99 -8 20 -26 45 -39 55 -14 10 -25 23 -25 27 0 5 -27 34 -59
66 -58 57 -87 113 -63 121 17 5 15 54 -3 79 -20 28 -71 59 -113 68 -27 6 -38
3 -58 -16 -13 -12 -24 -28 -24 -35 0 -18 -32 -84 -41 -84 -3 0 -29 -18 -57
-40 -27 -22 -55 -40 -60 -40 -15 0 -25 -18 -33 -60 l-7 -35 -1 31 c-1 18 -7
34 -16 38 -8 3 -15 13 -15 23 -1 17 -2 16 -15 -1 -11 -14 -15 -16 -15 -5 -1 8
-17 32 -37 54 -20 22 -33 35 -30 29 4 -7 0 -14 -8 -18 -11 -4 -15 2 -15 24 0
16 5 32 11 36 6 3 8 16 5 29 -4 15 -1 25 10 29 11 4 14 18 12 52 -2 38 -8 51
-31 68 -25 18 -41 21 -122 20 -105 -2 -180 -22 -214 -58 -19 -20 -22 -33 -19
-77 l3 -54 -46 -3 c-41 -3 -50 1 -68 24 -11 15 -21 35 -21 45 0 11 -4 19 -9
19 -14 0 -22 72 -9 87 6 7 7 13 4 13 -4 0 2 10 14 22 11 12 20 27 20 34 0 23
70 66 111 68 21 0 39 4 39 8 0 5 3 7 8 6 12 -4 52 21 85 53 25 24 38 29 82 29
40 0 56 5 73 23 12 12 37 38 57 57 19 19 35 38 35 42 0 4 18 25 41 47 39 37
88 125 90 159 0 13 2 13 9 -3 12 -29 12 -3 -1 33 -6 17 -17 33 -26 36 -9 4
-13 13 -9 22 4 9 2 42 -3 73 -21 121 -21 121 7 153 23 25 32 29 63 25 107 -14
184 -142 314 -519 37 -108 60 -145 107 -176 14 -10 52 -46 84 -82 39 -43 65
-64 77 -62 10 2 29 -3 42 -12 13 -9 31 -16 40 -16 8 0 15 -4 15 -10 0 -5 9
-10 19 -10 11 0 22 -4 26 -9 3 -5 32 -10 65 -10 33 0 64 -2 68 -5 5 -3 67 -8
138 -11 85 -5 137 -12 151 -21 29 -18 33 -18 33 6 0 18 7 20 68 20 149 0 290
51 369 132 42 44 110 161 138 240 36 98 63 187 80 257 15 63 25 82 71 133 30
33 54 70 54 82 0 11 3 32 7 45 4 18 3 22 -6 16 -10 -6 -11 -3 -1 15 6 12 9 24
6 28 -13 12 -27 -16 -40 -78 -7 -35 -17 -65 -22 -67 -6 -2 -27 3 -47 12 -33
14 -42 24 -38 47 0 4 3 33 5 65 l4 58 38 5 39 5 -35 14 c-19 8 -46 16 -60 18
-14 2 -26 8 -28 14 -2 5 -12 9 -22 9 -10 0 -25 6 -32 14 -8 8 -23 15 -33 17
-21 4 -33 40 -41 114 -2 28 -7 56 -10 64 -2 8 1 18 8 22 9 6 12 31 11 80 -1
39 2 82 7 95 7 16 3 42 -12 86 -11 35 -23 80 -25 101 -5 49 -20 87 -33 87 -5
0 -10 5 -10 11 0 6 7 9 15 5 10 -4 15 1 15 14 0 11 -3 20 -7 20 -14 0 -73 57
-73 70 0 8 10 9 31 5 24 -6 30 -4 26 6 -2 8 -9 13 -14 12 -6 -1 -9 11 -7 26 3
22 -1 30 -16 34 -26 7 -26 27 -1 34 28 7 35 34 11 40 -21 6 -27 28 -10 38 6 3
10 14 10 24 0 10 21 39 46 65 39 38 44 48 34 61 -7 8 -16 13 -20 10 -5 -3 -10
1 -13 7 -3 10 -8 10 -22 -2 -17 -14 -17 -13 -10 10 4 14 12 31 17 38 18 22
-17 14 -38 -9 -10 -11 -26 -25 -34 -29 -13 -7 -16 -2 -16 25 0 25 4 31 15 27
9 -3 12 -1 7 6 -4 7 -13 12 -21 12 -14 0 -31 37 -21 47 3 3 -1 15 -9 27 -8 11
-16 39 -16 61 -2 30 -3 33 -6 13 -2 -16 -8 -28 -13 -28 -5 0 -7 6 -4 14 3 8 1
17 -5 21 -12 7 -15 45 -3 45 7 0 11 27 11 98 1 24 6 42 12 42 7 0 8 7 4 18 -4
9 -9 32 -11 51 -3 19 -16 52 -30 75 l-25 41 3 -37 c1 -21 -2 -38 -7 -38 -6 0
-10 22 -11 48 0 42 -16 92 -30 92 -2 0 0 -9 6 -19 5 -11 10 -32 10 -47 0 -26
-1 -27 -20 -9 -11 10 -25 33 -32 51 -9 26 -15 31 -25 23 -10 -9 -15 -5 -23 16
-5 14 -10 33 -10 42 0 8 -11 24 -25 35 -14 11 -25 26 -25 33 0 8 -25 42 -55
76 -30 34 -52 65 -49 70 3 5 -2 9 -11 9 -17 0 -175 153 -175 169 0 7 -81 114
-124 163 -9 10 -27 40 -41 68 -14 28 -32 50 -41 50 -9 0 -29 -13 -45 -29 -28
-28 -30 -28 -51 -12 -13 9 -34 21 -48 27 -64 28 -206 100 -211 107 -3 5 -10 9
-15 8 -11 0 -6 40 7 53 5 6 8 37 7 70 -2 61 -2 61 -5 11 -3 -27 -8 -52 -13
-55 -4 -3 -12 -20 -17 -39 -8 -32 -12 -34 -51 -36 -36 -2 -43 1 -48 20 -3 13
3 40 15 63 12 23 21 48 21 56 0 7 7 16 14 19 10 4 13 1 9 -9 -3 -7 0 -14 6
-14 6 0 13 12 17 28 10 48 12 48 12 -7 0 -29 4 -57 9 -62 13 -13 3 109 -12
138 l-13 25 -17 -31 c-27 -54 -73 -59 -123 -13 -7 7 -19 9 -25 5 -7 -4 -6 1 2
10 12 15 12 22 1 42 -7 14 -20 25 -27 25 -9 0 -12 7 -9 18 4 13 -3 27 -24 45
-16 15 -30 31 -30 36 0 4 -12 8 -27 7 -29 -1 -30 2 -53 106 -9 40 -19 59 -32
63 -12 4 -18 16 -18 36 0 31 -14 39 -24 13 -3 -8 -10 -13 -15 -10 -4 3 -22 1
-40 -4 -24 -7 -31 -6 -31 6 0 17 -16 19 -24 2 -3 -9 -8 -8 -16 5 -15 24 -30
21 -31 -5 l0 -23 -11 23 c-10 19 -19 22 -73 22 l-62 0 -7 -46 c-3 -26 -6 -72
-6 -103 0 -52 -2 -57 -30 -73 -29 -17 -30 -17 -30 5 1 39 28 149 39 160 6 6
11 21 11 34 0 35 -38 31 -45 -4 -3 -16 -10 -42 -15 -59 -6 -17 -10 -64 -10
-105 0 -59 -4 -78 -18 -90 -10 -8 -23 -14 -29 -12 -7 3 -25 -3 -42 -11 -38
-20 -70 -20 -77 -1 -3 8 1 70 10 137 21 165 21 168 -8 168 -21 0 -24 -6 -29
-47z m260 -215 c-3 -7 -5 -2 -5 12 0 14 2 19 5 13 2 -7 2 -19 0 -25z m-122
-168 c-3 -5 -14 -10 -23 -10 -15 0 -15 2 -2 10 20 13 33 13 25 0z m1266 -392
c13 -17 39 -45 57 -61 17 -17 32 -35 32 -41 0 -19 -41 -16 -67 4 -21 17 -73
103 -73 123 0 18 29 4 51 -25z m-1404 -690 c8 -2 58 -1 109 2 59 3 94 1 94 -5
0 -5 4 -3 10 5 8 12 10 12 16 -4 4 -10 10 -14 13 -9 10 13 61 33 61 24 0 -10
19 -9 35 1 6 3 24 4 40 3 17 -2 61 -6 99 -9 38 -4 74 -11 80 -15 6 -5 27 -8
46 -7 19 2 43 -2 53 -8 12 -8 22 -8 34 0 13 8 31 7 68 -2 47 -13 127 -20 312
-29 46 -2 90 -8 99 -13 9 -5 36 -7 59 -4 54 6 235 -32 278 -59 18 -10 38 -19
46 -19 20 0 99 -62 104 -83 3 -10 11 -15 19 -12 8 3 26 -4 41 -15 32 -25 114
-161 145 -240 73 -185 69 -175 116 -365 30 -123 62 -222 81 -252 8 -12 15 -36
15 -52 0 -16 5 -42 11 -58 6 -15 15 -84 20 -153 11 -155 11 -174 -1 -178 -6
-2 -10 -9 -10 -17 0 -28 -25 -34 -58 -13 -18 11 -32 24 -32 30 0 5 -4 6 -10 3
-5 -3 -10 -2 -10 3 0 15 -118 52 -166 52 -23 0 -57 6 -75 14 -19 8 -59 17 -89
21 -30 4 -59 11 -65 15 -5 4 -21 10 -35 13 -14 3 -45 11 -70 17 -25 7 -70 13
-100 15 -30 1 -69 5 -87 9 -22 5 -44 2 -70 -9 -68 -30 -78 -34 -113 -41 -19
-4 -37 -8 -40 -9 -3 0 -11 -4 -17 -8 -8 -5 -13 -4 -13 2 0 6 -11 11 -25 11
-14 0 -25 -4 -25 -10 0 -5 -5 -10 -10 -10 -6 0 -26 -18 -46 -40 -45 -50 -87
-62 -162 -49 -84 16 -235 69 -248 88 -26 36 -65 72 -73 67 -10 -7 -21 17 -21
46 0 11 -5 18 -12 15 -7 -2 -21 12 -30 32 -14 31 -18 33 -24 17 -7 -17 -8 -17
-20 5 -11 21 -13 22 -19 7 -4 -10 -13 -18 -20 -18 -13 0 -48 38 -59 63 -3 9
-6 9 -13 0 -7 -10 -22 -9 -66 3 -32 8 -86 16 -121 18 -35 2 -69 7 -76 11 -7 5
-75 9 -150 10 -138 2 -140 2 -185 43 -7 6 -23 12 -35 12 -12 0 -19 4 -15 9 3
5 -9 11 -27 13 -30 3 -33 7 -39 43 -4 22 -4 45 0 50 4 6 8 26 10 45 1 19 7 39
12 45 5 5 9 17 9 27 0 10 4 18 9 18 4 0 11 21 15 48 5 36 3 50 -9 58 -13 10
-12 14 10 28 14 9 23 21 19 27 -3 6 2 19 12 30 14 15 15 22 5 32 -9 9 -18 8
-41 -5 -25 -14 -31 -14 -41 -2 -6 8 -8 14 -4 14 4 0 2 7 -5 15 -7 8 -21 15
-30 15 -11 0 -24 13 -32 30 -7 17 -17 30 -21 30 -5 0 -6 12 -3 28 4 15 8 37
10 49 3 12 12 33 21 47 10 14 14 26 9 26 -4 0 2 10 13 23 26 29 75 136 67 149
-3 5 6 22 21 38 17 17 24 33 19 41 -5 9 -2 10 9 6 12 -5 17 -1 17 12 0 14 11
21 38 27 20 4 45 7 54 6 9 -1 20 7 23 18 3 10 14 22 24 25 9 3 26 13 37 23 26
23 82 42 133 44 26 1 37 4 29 10 -10 6 -10 10 2 18 11 7 16 5 18 -5 2 -7 10
-15 19 -17z m2323 -662 c0 -7 -11 -21 -25 -30 -29 -19 -35 -3 -8 26 19 21 33
23 33 4z m-2770 -46 c0 -5 -2 -10 -4 -10 -3 0 -8 5 -11 10 -3 6 -1 10 4 10 6
0 11 -4 11 -10z m2673 -95 c4 -8 2 -17 -3 -20 -6 -4 -10 3 -10 14 0 25 6 27
13 6z m22 -115 c3 -5 -1 -10 -10 -10 -9 0 -13 5 -10 10 3 6 8 10 10 10 2 0 7
-4 10 -10z m-2685 -226 c0 -8 -4 -12 -10 -9 -5 3 -10 10 -10 16 0 5 5 9 10 9
6 0 10 -7 10 -16z m50 -8 c0 -3 -4 -8 -10 -11 -5 -3 -10 -1 -10 4 0 6 5 11 10
11 6 0 10 -2 10 -4z m-845 -243 c1 -40 -25 -45 -44 -9 -16 29 -6 48 22 44 17
-2 22 -10 22 -35z m1022 -33 c-8 -31 9 -33 52 -5 23 14 44 25 48 25 14 -1 93
-113 93 -131 0 -17 3 -17 35 -3 19 8 35 11 35 8 0 -4 7 -1 15 6 13 11 15 8 15
-14 0 -14 6 -26 13 -27 10 0 10 -2 0 -6 -7 -2 -13 -14 -13 -24 0 -11 4 -18 9
-15 10 6 23 -33 15 -46 -3 -4 -15 -3 -27 4 -12 7 -28 13 -34 14 -7 1 -43 14
-80 28 -38 14 -90 28 -118 32 -27 3 -53 10 -56 16 -10 15 -19 125 -13 143 9
22 17 18 11 -5z m268 -49 c0 -33 -4 -41 -18 -41 -10 0 -16 4 -13 9 3 4 1 23
-4 41 -11 39 -5 54 18 41 12 -7 17 -23 17 -50z m130 -96 c-14 -73 -13 -79 3
-91 14 -10 15 -15 5 -25 -10 -10 -13 -10 -13 -1 0 7 -3 11 -7 11 -43 -7 -54
12 -27 43 13 13 14 21 6 31 -13 16 -24 87 -13 87 4 0 12 -5 19 -12 8 -8 14 -5
22 17 18 48 21 21 5 -60z m-1635 21 c0 -26 -7 -53 -18 -67 -10 -13 -26 -43
-36 -66 -10 -23 -25 -44 -33 -47 -8 -3 -13 -11 -12 -18 2 -7 -7 -35 -20 -63
-43 -93 -50 -110 -84 -205 -58 -161 -76 -214 -82 -248 -11 -56 -28 -25 -22 42
5 70 64 224 187 491 42 94 82 182 89 198 16 40 31 33 31 -17z m69 -3 c0 -25
-1 -26 -9 -8 -12 27 -12 35 0 35 6 0 10 -12 9 -27z m1627 -137 c26 -10 32 1
24 43 -6 33 -4 38 8 33 9 -3 13 -1 9 4 -3 6 -2 16 4 24 7 12 9 11 9 -5 0 -15
3 -17 9 -7 6 9 12 -1 21 -35 7 -26 14 -52 14 -56 1 -5 9 -14 19 -21 9 -7 17
-23 17 -34 0 -19 -3 -20 -26 -12 -14 6 -30 8 -35 5 -4 -3 -11 6 -15 20 -3 13
-9 23 -14 20 -4 -2 -22 0 -41 5 l-34 10 5 62 5 63 3 -57 c2 -39 8 -58 18 -62z
m1 47 c-3 -10 -5 -4 -5 12 0 17 2 24 5 18 2 -7 2 -21 0 -30z m1229 -3 c-4 -25
-2 -40 4 -40 5 0 10 -8 11 -17 0 -16 2 -15 10 2 6 14 7 1 3 -40 -7 -75 -13
-97 -25 -89 -12 7 -63 15 -110 17 -20 1 -43 8 -52 15 -11 10 -21 11 -35 3 -11
-6 -29 -9 -41 -6 -12 2 -25 -3 -30 -13 -9 -16 -11 -15 -26 3 -10 14 -14 32
-10 58 3 22 1 37 -5 37 -5 0 -10 8 -10 18 0 11 3 13 8 6 9 -15 33 -5 97 39
l49 34 43 -45 c24 -24 43 -48 43 -53 0 -18 16 -8 31 19 9 15 15 38 14 52 -3
31 2 40 22 40 13 0 14 -8 9 -40z m483 28 c10 3 12 -4 8 -34 -10 -66 -17 -180
-11 -165 5 11 8 11 15 0 5 -8 6 18 3 62 -8 96 11 115 46 45 29 -56 35 -66 42
-66 13 0 8 74 -7 100 -8 14 -14 28 -15 32 0 13 157 -48 214 -83 31 -18 71 -48
89 -67 30 -31 32 -38 37 -128 3 -52 1 -95 -3 -97 -4 -1 -4 -14 1 -27 9 -23 10
-20 17 25 4 28 11 59 15 70 16 42 23 -35 11 -125 -6 -49 -9 -107 -5 -128 5
-33 2 -44 -16 -62 -22 -22 -23 -22 -37 -4 -8 11 -11 30 -7 46 6 29 -11 39 -33
17 -7 -7 -15 -6 -26 5 -9 9 -18 16 -22 16 -11 0 -35 28 -35 40 0 6 -7 13 -15
16 -9 4 -15 20 -16 43 -1 35 -1 35 -10 10 -13 -36 -40 -29 -102 27 -38 34 -54
42 -77 39 -23 -3 -36 3 -57 25 -16 17 -40 31 -55 32 -34 3 -38 19 -22 93 7 33
13 81 13 107 1 43 -2 49 -29 63 -23 12 -30 22 -30 45 0 17 5 30 10 30 6 0 10
-4 10 -9 0 -4 10 -19 23 -32 12 -14 28 -38 36 -54 22 -48 24 -13 2 43 -21 53
-19 67 8 53 9 -5 22 -6 30 -3z m-147 -17 c9 14 8 -22 -8 -186 -6 -58 -5 -65 9
-59 13 5 16 15 11 48 l-5 41 20 -44 c29 -59 28 -86 -1 -76 -13 4 -45 11 -73
17 -27 5 -68 18 -90 28 -22 9 -48 16 -57 14 -10 -1 -18 3 -18 9 0 5 -3 8 -6 5
-3 -4 -19 -2 -35 2 -20 6 -29 5 -30 -3 0 -7 -4 -3 -8 8 -11 27 -2 57 15 51 17
-6 18 6 3 21 -8 8 -8 25 2 65 10 42 14 48 18 30 7 -28 22 -28 38 1 12 21 12
21 12 -8 0 -16 -5 -46 -12 -65 -18 -51 -15 -65 13 -68 20 -2 22 -1 10 7 -8 6
-10 11 -4 11 6 0 11 8 11 18 0 38 5 66 10 55 3 -10 12 -9 38 1 32 14 34 13 41
-7 4 -12 6 -39 6 -59 -1 -25 4 -41 16 -50 10 -7 22 -22 27 -33 7 -19 8 -19 15
5 11 35 12 92 1 86 -16 -11 -22 55 -6 77 15 21 15 21 16 -8 l1 -30 9 30 c5 18
5 33 -1 39 -6 6 -10 17 -9 26 0 11 2 12 6 1 5 -11 7 -11 15 0z m54 -108 c9
-22 12 -47 8 -70 l-7 -36 -13 31 c-20 48 -30 127 -14 117 6 -4 18 -23 26 -42z
m-3699 -285 c-3 -8 -6 -5 -6 6 -1 11 2 17 5 13 3 -3 4 -12 1 -19z m23 -143 c0
-33 -4 -66 -9 -73 -15 -24 -20 12 -14 88 7 85 23 74 23 -15z m540 -41 c11 -26
36 -69 55 -95 40 -56 42 -61 18 -52 -16 6 -16 5 -4 -10 7 -9 9 -17 4 -17 -12
0 -36 27 -51 56 -13 25 -53 164 -47 164 2 0 13 -21 25 -46z m3757 4 c-3 -7 -5
-2 -5 12 0 14 2 19 5 13 2 -7 2 -19 0 -25z m-3957 2 c0 -11 -4 -20 -10 -20 -5
0 -10 9 -10 20 0 11 5 20 10 20 6 0 10 -9 10 -20z m-312 -26 c-3 -14 -5 -12
-10 9 -3 19 -2 25 4 19 6 -6 8 -18 6 -28z m3575 -68 c9 10 55 -26 62 -49 4
-14 8 -17 12 -9 4 10 8 10 19 1 12 -9 20 -9 40 2 20 10 27 10 33 1 10 -16 87
-21 84 -6 -2 8 9 9 38 3 76 -17 77 -20 130 -236 8 -34 18 -53 28 -53 13 0 7
-15 -7 -15 -4 -1 -22 -15 -40 -32 -18 -17 -47 -35 -65 -38 -17 -4 -37 -11 -43
-16 -6 -5 -53 -12 -103 -16 -89 -6 -93 -5 -114 18 -12 13 -28 36 -34 52 -7 15
-20 27 -29 27 -10 0 -14 6 -11 14 3 8 -1 17 -9 20 -8 3 -13 9 -12 13 3 10 -58
73 -71 73 -5 0 -12 13 -16 28 -3 15 -26 53 -50 82 -43 52 -55 80 -36 80 5 0
14 -7 21 -15 23 -27 46 -18 56 23 8 34 12 37 44 37 20 0 35 5 36 13 3 25 5 27
18 10 7 -10 16 -15 19 -12z m-3273 -57 c0 -10 -6 -19 -14 -19 -19 0 -28 14
-20 33 8 21 34 10 34 -14z m3755 -259 c3 -5 -1 -10 -9 -10 -9 0 -16 5 -16 10
0 6 4 10 9 10 6 0 13 -4 16 -10z m-2502 -99 c16 0 26 -5 22 -11 -3 -5 1 -10
11 -10 13 0 11 -6 -10 -27 -21 -21 -26 -33 -21 -53 4 -14 9 -69 12 -124 3 -77
8 -103 23 -118 20 -21 32 -76 18 -84 -4 -3 -8 -13 -8 -23 0 -25 -30 -49 -70
-56 -19 -3 -39 -11 -45 -18 -12 -15 -55 -20 -55 -6 0 16 -20 10 -48 -16 -15
-14 -38 -28 -52 -31 -47 -10 -111 -49 -138 -84 -31 -41 -50 -55 -77 -55 -11 0
-19 -6 -17 -12 1 -7 -4 -13 -11 -13 -8 0 -22 -9 -32 -20 -14 -15 -21 -17 -32
-9 -9 9 -13 9 -13 0 0 -6 5 -11 10 -11 15 0 12 -19 -4 -36 -19 -18 -26 -18
-26 1 0 21 -18 19 -25 -4 -3 -10 -17 -22 -30 -25 -17 -4 -25 -13 -25 -27 0
-34 -34 -19 -38 16 -7 55 -42 71 -42 19 0 -21 -4 -24 -20 -19 -15 5 -20 2 -20
-13 0 -11 -7 -22 -14 -25 -20 -8 -31 29 -16 48 6 8 9 18 6 23 -3 5 1 18 8 28
11 15 12 22 3 33 -9 11 -9 15 0 18 10 4 10 8 -1 18 -26 27 -1 295 30 320 7 6
14 21 16 35 2 16 9 24 19 22 14 -2 79 67 79 84 0 12 43 98 59 117 8 9 23 17
33 17 23 0 76 26 103 51 11 10 51 25 88 34 36 8 79 21 94 27 31 13 138 25 193
23 19 -1 48 -3 63 -4z m-1818 -131 c3 -5 1 -10 -4 -10 -6 0 -11 5 -11 10 0 6
2 10 4 10 3 0 8 -4 11 -10z m264 -582 c11 4 13 -5 8 -43 -4 -26 -7 -65 -7 -86
0 -27 -4 -39 -14 -39 -10 0 -12 12 -9 48 3 34 2 43 -6 32 -17 -25 -22 -5 -15
71 7 69 8 72 18 43 7 -20 16 -29 25 -26z m-59 12 c0 -5 -4 -10 -10 -10 -5 0
-10 5 -10 10 0 6 5 10 10 10 6 0 10 -4 10 -10z m137 -25 c-15 -10 -20 -32 -24
-95 -6 -88 -23 -120 -23 -43 0 89 12 154 26 149 7 -3 16 -1 20 5 3 6 9 7 12 4
4 -4 -1 -13 -11 -20z m2573 -55 c0 -11 5 -20 10 -20 6 0 10 5 10 10 0 20 19 9
22 -12 2 -17 10 -22 33 -23 17 0 36 -8 43 -18 7 -9 18 -15 23 -12 8 6 14 -16
10 -39 -1 -4 1 -17 5 -28 6 -18 6 -18 25 3 18 20 19 21 19 3 0 -10 7 -27 14
-37 12 -16 14 -16 20 -2 9 25 26 8 26 -26 0 -33 20 -79 44 -98 9 -7 14 -17 11
-21 -3 -5 -1 -11 5 -15 16 -10 -8 -45 -30 -45 -32 0 -23 -27 18 -56 45 -34 82
-70 82 -82 0 -4 16 -26 35 -48 19 -21 35 -44 35 -51 0 -12 111 -93 128 -93 11
0 51 -47 69 -79 8 -17 11 -42 7 -71 -3 -25 -1 -64 4 -88 13 -56 -10 -106 -45
-97 -20 5 -22 1 -25 -42 -2 -34 -7 -47 -17 -45 -8 2 -11 -3 -8 -13 5 -11 0
-15 -18 -15 -21 0 -25 6 -31 45 -5 35 -9 43 -19 35 -7 -6 -10 -20 -7 -32 4
-18 2 -20 -16 -16 -24 7 -32 -16 -9 -26 6 -3 0 -3 -15 0 -28 6 -36 -3 -19 -21
11 -13 2 -75 -11 -75 -6 0 -5 -6 2 -15 17 -20 1 -19 -22 2 -21 19 -36 10 -19
-11 15 -17 6 -56 -13 -56 -6 0 -13 10 -13 22 -1 13 -9 27 -16 33 -8 6 -17 19
-19 30 -3 11 -8 -11 -12 -50 -10 -98 -14 -102 -15 -15 -1 83 -13 119 -27 79
-4 -13 -7 -27 -6 -31 1 -5 -2 -8 -6 -8 -4 0 -13 14 -19 30 -6 17 -17 30 -23
30 -8 0 -9 -7 -5 -17 13 -35 18 -120 6 -127 -6 -4 -11 -19 -12 -34 l-1 -27 -8
25 c-8 25 -8 25 -9 -5 -1 -16 -8 -43 -15 -60 l-13 -30 -13 24 c-12 24 -13 24
-26 6 -8 -10 -14 -15 -14 -10 0 5 -7 0 -15 -12 -8 -11 -16 -42 -17 -67 0 -25
-5 -46 -9 -46 -4 0 -4 -14 1 -30 5 -17 6 -45 3 -64 -3 -19 -1 -36 6 -40 14 -9
14 -65 1 -86 -8 -13 -10 -12 -10 2 0 12 -7 17 -22 15 -21 -2 -22 1 -20 72 1
40 5 77 8 82 3 5 -2 9 -10 9 -13 0 -16 12 -16 53 0 67 -11 80 -27 30 -8 -26
-12 -31 -12 -16 -2 37 -24 113 -34 113 -6 0 -7 -20 -3 -46 3 -26 6 -61 7 -78
0 -17 3 -26 6 -19 3 10 7 10 18 0 9 -8 10 -16 3 -24 -7 -9 -7 -13 1 -13 15 0
14 -57 -1 -63 -10 -4 -10 -8 1 -15 11 -8 11 -14 -3 -33 -9 -13 -16 -18 -16
-11 0 18 -18 14 -23 -5 -3 -10 -5 -2 -6 17 -2 53 -17 70 -26 29 -17 -84 -33
-96 -30 -23 1 26 -1 62 -5 80 -4 19 -4 32 0 29 11 -7 27 86 22 129 l-4 38 -18
-38 -17 -39 -7 42 c-8 46 -30 50 -34 6 -3 -39 -12 -42 -12 -4 0 38 -21 38 -31
0 l-7 -24 -7 22 c-12 37 -24 17 -18 -29 5 -32 3 -39 -7 -33 -10 6 -12 4 -7 -8
9 -25 -2 -47 -29 -58 -13 -4 -24 -16 -25 -26 0 -16 -2 -15 -9 2 -7 17 -9 17
-9 3 -2 -34 -30 -19 -37 19 -6 30 -9 34 -14 18 -4 -11 -2 -34 3 -51 8 -26 6
-40 -10 -73 l-20 -40 -11 24 c-7 14 -16 25 -22 25 -6 0 -9 4 -6 8 3 5 1 22 -4
38 -6 21 -9 24 -9 8 -1 -11 -7 -26 -13 -32 -7 -7 -13 -18 -13 -24 0 -26 -23
-16 -29 13 -11 55 -7 77 19 105 28 30 37 86 10 64 -16 -13 -15 -15 -19 90 -1
14 2 30 7 37 4 6 13 69 19 140 9 115 17 142 39 143 4 0 10 -10 14 -23 6 -19 8
-16 20 23 7 25 14 38 15 30 1 -8 8 3 14 24 7 22 16 35 19 29 10 -16 55 7 61
30 3 14 10 17 24 12 11 -3 23 -1 27 5 11 17 25 11 25 -11 0 -26 21 -20 36 10
l12 23 7 -21 c3 -12 10 -19 15 -16 4 3 11 -13 15 -35 4 -25 12 -39 18 -37 7 3
11 9 10 15 -2 6 3 9 11 6 9 -4 16 6 21 33 5 31 8 34 16 20 12 -21 29 -22 29
-3 0 8 14 18 32 22 18 3 38 14 45 23 11 14 14 14 23 1 6 -10 10 -11 10 -2 0
17 20 15 43 -5 22 -20 22 -23 3 55 -4 18 -2 22 9 18 10 -3 15 1 15 14 0 10 9
35 21 55 15 25 18 39 11 48 -6 7 -12 28 -14 47 -4 33 -5 34 -14 12 -9 -22 -11
-19 -24 28 -9 34 -18 49 -27 46 -7 -3 -13 -2 -13 3 0 5 -13 11 -30 14 -19 4
-35 17 -45 37 -8 16 -20 31 -25 31 -17 2 -23 4 -77 22 -48 17 -66 17 -135 1
-5 -1 -14 -2 -21 -3 -7 0 -24 -11 -36 -22 -19 -18 -25 -19 -32 -8 -6 11 -11
11 -20 2 -10 -10 -17 -9 -32 4 -28 26 -96 28 -119 3 -11 -11 -25 -17 -35 -13
-9 4 -21 -1 -28 -11 -14 -19 -45 -17 -71 4 -13 12 -18 12 -21 3 -3 -7 -9 -13
-14 -13 -6 0 -7 5 -4 11 11 17 -68 -1 -90 -22 -13 -12 -29 -16 -43 -12 -12 3
-29 0 -37 -7 -12 -10 -18 -8 -32 9 -15 18 -23 20 -50 12 -44 -13 -51 17 -12
55 16 15 29 35 29 44 0 27 69 74 144 97 105 32 219 74 234 86 7 5 34 11 60 12
64 3 152 16 180 26 21 8 22 11 8 24 -12 12 -37 15 -113 14 -54 -1 -127 -1
-163 0 -36 1 -78 -3 -95 -9 -63 -25 -249 -58 -263 -47 -11 9 -11 13 4 24 10 7
14 13 8 13 -5 0 -2 4 6 10 9 6 17 5 22 -3 6 -9 14 -5 28 12 l20 23 9 -23 9
-24 7 28 c4 15 13 27 21 27 7 0 16 10 19 23 4 13 14 23 23 23 9 0 40 3 69 8
48 8 52 10 58 42 5 30 25 49 25 24 0 -15 36 -12 50 5 8 10 30 15 60 15 42 0
52 4 77 33 29 33 93 51 93 26 0 -8 4 -8 14 1 12 9 17 7 28 -9 7 -12 18 -21 25
-21 6 0 19 -7 28 -16 15 -15 17 -15 34 0 10 9 24 16 32 16 8 0 20 5 27 12 7 7
12 9 12 5 0 -4 21 7 47 23 55 35 73 38 73 10z m610 -85 c0 -5 -5 -3 -10 5 -5
8 -10 20 -10 25 0 6 5 3 10 -5 5 -8 10 -19 10 -25z m-173 -337 c-3 -8 -6 -5
-6 6 -1 11 2 17 5 13 3 -3 4 -12 1 -19z m-2876 -121 c-10 -9 -11 -8 -5 6 3 10
9 15 12 12 3 -3 0 -11 -7 -18z m29 -217 c0 -5 -4 -10 -10 -10 -5 0 -10 5 -10
10 0 6 5 10 10 10 6 0 10 -4 10 -10z m20 -65 c0 -30 -3 -55 -7 -55 -5 0 -6 25
-5 55 5 71 12 71 12 0z m39 3 c-1 -41 -1 -42 -11 -15 -5 15 -7 34 -4 42 10 27
16 16 15 -27z m2021 -162 c0 -3 -4 -8 -10 -11 -5 -3 -10 -1 -10 4 0 6 5 11 10
11 6 0 10 -2 10 -4z m-1920 -140 c-7 -7 -10 6 -9 40 l1 49 9 -39 c6 -26 6 -43
-1 -50z m70 34 c0 -22 -4 -40 -10 -40 -11 0 -13 39 -4 64 10 26 14 19 14 -24z
m1649 -65 c-6 -21 -9 -49 -6 -61 2 -13 1 -24 -3 -24 -12 0 -22 87 -15 120 6
25 9 28 20 16 11 -11 12 -22 4 -51z m-1643 -80 l-11 -70 -3 54 c-4 62 5 108
17 95 5 -5 4 -40 -3 -79z m1606 -4 c1 -61 4 -71 17 -66 13 5 14 4 4 -6 -18
-18 -16 -37 4 -57 16 -16 15 -17 -5 -20 -12 -2 -22 -10 -22 -18 0 -8 -3 -13
-8 -11 -4 3 -6 31 -5 62 1 32 -3 69 -8 83 -6 17 -6 29 1 36 14 14 13 29 -2 20
-8 -5 -9 -2 -5 10 4 10 7 27 7 39 0 14 3 18 10 11 6 -6 11 -43 12 -83z m-1675
57 c-3 -8 -6 -5 -6 6 -1 11 2 17 5 13 3 -3 4 -12 1 -19z m-43 -128 c-6 -42 -7
-43 -16 -20 -16 39 -19 92 -6 108 10 12 14 9 20 -14 5 -16 6 -49 2 -74z m37
77 c-10 -9 -11 -8 -5 6 3 10 9 15 12 12 3 -3 0 -11 -7 -18z m1626 -69 c-3 -7
-5 -2 -5 12 0 14 2 19 5 13 2 -7 2 -19 0 -25z m-1690 -50 c-3 -8 -6 -5 -6 6
-1 11 2 17 5 13 3 -3 4 -12 1 -19z m1650 -30 c-3 -8 -6 -5 -6 6 -1 11 2 17 5
13 3 -3 4 -12 1 -19z m1099 -50 c-3 -13 -6 -30 -6 -37 0 -10 -3 -11 -9 -5 -12
11 -2 64 11 64 6 0 8 -10 4 -22z m-1006 -22 c0 -27 -16 -44 -23 -24 -5 18 3
48 14 48 5 0 9 -11 9 -24z m796 -20 c1 -9 -4 -12 -12 -9 -8 3 -14 15 -14 26 0
16 3 18 12 9 6 -6 13 -18 14 -26z m-776 -109 c0 -23 -5 -34 -15 -34 -8 0 -15
4 -15 9 0 4 5 8 10 8 6 0 10 11 10 25 0 14 2 25 5 25 3 0 5 -15 5 -33z m773
-8 c-8 -29 -13 -23 -13 14 0 22 3 28 9 18 5 -7 6 -22 4 -32z m-67 1 c33 0 47
-117 18 -158 -30 -43 -44 -22 -51 76 -5 62 6 136 14 100 3 -10 11 -18 19 -18z
m-2936 -6 c0 -14 -4 -23 -10 -19 -5 3 -10 15 -10 26 0 10 5 19 10 19 6 0 10
-12 10 -26z m35 -102 c6 -4 12 -23 13 -42 2 -25 13 -44 38 -65 19 -17 34 -37
34 -44 0 -17 -41 -50 -62 -51 -23 0 -31 16 -34 72 -1 27 -9 54 -18 64 -22 22
-21 74 2 74 9 0 22 -4 27 -8z m2741 -89 l-16 -28 4 28 c3 15 8 37 12 50 l8 22
4 -22 c2 -12 -4 -34 -12 -50z m-2584 -166 c14 -13 29 -38 33 -55 4 -20 18 -38
40 -52 71 -44 43 -121 -57 -159 -37 -14 -49 0 -53 64 -3 50 -8 63 -34 87 -38
35 -42 87 -11 118 26 26 51 25 82 -3z m3138 -75 c0 -10 -9 -30 -21 -43 -17
-19 -22 -21 -29 -9 -14 22 -12 46 5 60 8 7 15 19 15 27 0 12 2 12 15 -1 8 -8
15 -23 15 -34z m57 -161 c-2 -26 -9 -47 -17 -49 -9 -3 -11 1 -7 12 4 9 2 16
-2 16 -5 0 -11 -6 -14 -12 -2 -7 -7 -10 -11 -7 -8 7 11 93 27 124 10 19 11 18
19 -10 4 -16 7 -50 5 -74z m-1867 17 c0 -18 -2 -20 -9 -8 -6 8 -7 18 -5 22 9
14 14 9 14 -14z m-59 -35 c-12 -20 -14 -14 -5 12 4 9 9 14 11 11 3 -2 0 -13
-6 -23z m173 11 c4 -10 -1 -25 -11 -36 -15 -17 -18 -17 -32 -4 -13 14 -13 18
4 36 22 24 31 25 39 4z m-1924 -31 c0 -16 -5 -35 -10 -43 -7 -11 -10 -4 -10
28 0 23 5 42 10 42 6 0 10 -12 10 -27z m69 -20 l-1 -48 -10 34 c-5 18 -7 40
-4 47 10 27 16 14 15 -33z"/>
<path d="M2968 4323 c-7 -35 -3 -63 8 -63 9 0 14 12 14 35 0 19 -4 35 -10 35
-5 0 -11 -3 -12 -7z"/>
<path d="M4398 4112 c-5 -23 -12 -31 -20 -26 -9 5 -8 2 1 -10 19 -23 33 -7 29
35 l-3 34 -7 -33z"/>
<path d="M5180 4083 c0 -12 -3 -29 -7 -39 -5 -12 -3 -15 6 -9 10 5 11 2 7 -12
-4 -13 2 -29 19 -47 15 -16 29 -26 32 -22 9 8 -16 89 -38 122 -17 26 -19 27
-19 7z"/>
<path d="M5002 3985 c0 -16 2 -22 5 -12 2 9 2 23 0 30 -3 6 -5 -1 -5 -18z"/>
<path d="M5030 3953 c-3 -23 -2 -39 3 -34 5 5 7 24 5 42 -3 33 -4 33 -8 -8z"/>
<path d="M5093 3970 c2 -14 8 -23 13 -21 10 4 7 22 -7 36 -6 6 -8 1 -6 -15z"/>
<path d="M5302 3810 c0 -19 2 -27 5 -17 2 9 2 25 0 35 -3 9 -5 1 -5 -18z"/>
<path d="M5443 3700 c5 -28 14 -34 20 -11 3 11 -1 22 -9 25 -9 4 -13 -1 -11
-14z"/>
<path d="M4730 4020 c0 -5 5 -10 10 -10 6 0 10 5 10 10 0 6 -4 10 -10 10 -5 0
-10 -4 -10 -10z"/>
<path d="M4915 3210 c3 -5 8 -10 11 -10 2 0 4 5 4 10 0 6 -5 10 -11 10 -5 0
-7 -4 -4 -10z"/>
<path d="M1280 2369 c0 -5 5 -7 10 -4 6 3 10 8 10 11 0 2 -4 4 -10 4 -5 0 -10
-5 -10 -11z"/>
<path d="M4263 1324 c-3 -8 -1 -20 6 -27 8 -8 11 -4 11 16 0 30 -7 35 -17 11z"/>
<path d="M3740 1204 c0 -8 5 -12 10 -9 6 4 8 11 5 16 -9 14 -15 11 -15 -7z"/>
<path d="M4360 1130 c0 -5 5 -10 11 -10 5 0 7 5 4 10 -3 6 -8 10 -11 10 -2 0
-4 -4 -4 -10z"/>
<path d="M3477 750 c-3 -11 -1 -20 4 -20 5 0 9 9 9 20 0 11 -2 20 -4 20 -2 0
-6 -9 -9 -20z"/>
<path d="M3441 654 c0 -11 3 -14 6 -6 3 7 2 16 -1 19 -3 4 -6 -2 -5 -13z"/>
<path d="M4051 6744 c0 -11 3 -14 6 -6 3 7 2 16 -1 19 -3 4 -6 -2 -5 -13z"/>
<path d="M0 3785 l0 -285 34 0 c21 0 36 6 40 15 7 18 62 20 69 3 4 -10 8 -10
16 1 8 13 14 13 38 1 34 -17 60 -21 96 -14 23 5 27 11 28 42 1 20 3 28 6 17 2
-11 6 -30 9 -42 6 -29 20 -30 27 -2 7 24 33 20 31 -5 -1 -10 6 -16 18 -16 11
0 26 -7 34 -15 9 -8 24 -15 33 -15 10 0 24 7 31 15 17 21 50 19 50 -2 1 -17 1
-17 11 0 24 42 69 8 69 -52 l0 -31 60 0 c33 0 60 4 60 10 0 6 9 10 20 10 11 0
20 6 20 13 0 21 39 40 56 26 7 -6 25 -8 38 -5 20 5 27 15 33 49 10 47 33 57
44 17 6 -24 7 -24 14 -5 5 11 20 38 34 60 14 22 24 43 23 47 -1 5 4 7 11 5 6
-1 12 5 12 13 0 8 -6 14 -12 13 -7 -2 -13 3 -13 10 0 12 -61 38 -124 52 -23 5
-27 8 -15 16 11 7 9 9 -10 9 -13 0 -32 11 -42 24 -10 13 -33 26 -51 30 -21 4
-37 14 -43 29 -8 18 -19 22 -65 25 -73 3 -129 20 -161 49 -18 16 -36 23 -65
22 -21 -1 -58 6 -82 15 -23 8 -44 15 -47 16 -5 0 -12 1 -35 4 -8 2 -25 3 -37
4 -13 1 -23 9 -23 17 0 11 -11 15 -40 15 -27 0 -40 4 -40 13 0 15 -112 67
-142 67 -17 0 -18 -20 -18 -285z m1010 -172 c0 -5 -5 -15 -10 -23 -9 -13 -11
-13 -19 0 -5 8 -7 18 -5 22 6 10 34 11 34 1z m-710 -73 c0 -5 -4 -10 -10 -10
-5 0 -10 5 -10 10 0 6 5 10 10 10 6 0 10 -4 10 -10z"/>
<path d="M5700 3966 c0 -2 7 -7 16 -10 8 -3 12 -2 9 4 -6 10 -25 14 -25 6z"/>
<path d="M1098 3643 c7 -3 16 -2 19 1 4 3 -2 6 -13 5 -11 0 -14 -3 -6 -6z"/>
<path d="M80 3489 c0 -5 5 -7 10 -4 6 3 10 8 10 11 0 2 -4 4 -10 4 -5 0 -10
-5 -10 -11z"/>
<path d="M951 3454 c0 -11 3 -14 6 -6 3 7 2 16 -1 19 -3 4 -6 -2 -5 -13z"/>
<path d="M907 3430 c-4 -16 -1 -20 11 -18 19 4 23 29 6 35 -6 2 -14 -6 -17
-17z"/>
<path d="M5330 2335 c0 -8 -4 -15 -9 -15 -5 0 -8 -19 -8 -42 0 -24 -1 -83 -2
-133 -1 -49 2 -101 8 -115 l10 -25 0 28 c1 15 6 27 11 27 7 0 7 6 0 19 -5 11
-9 37 -9 58 2 30 3 32 6 10 5 -30 23 -28 23 3 0 22 26 30 56 17 14 -6 36 -4
68 7 26 9 60 16 77 16 37 0 68 25 43 34 -9 3 -22 6 -30 6 -8 0 -28 10 -43 21
-16 12 -35 19 -43 17 -7 -3 -21 -1 -30 4 -12 5 -18 5 -18 -2 0 -6 -6 -7 -17
-1 -10 5 -30 14 -45 20 -20 8 -28 18 -28 36 0 14 -4 25 -10 25 -5 0 -10 -7
-10 -15z"/>
<path d="M5665 2191 c-30 -9 -65 -34 -65 -48 0 -7 18 -13 43 -15 53 -4 57 -28
7 -45 l-35 -13 50 3 c46 2 50 4 53 30 2 15 7 27 12 27 13 0 19 -64 6 -72 -7
-5 -4 -8 7 -8 9 0 17 -6 18 -12 0 -13 124 -79 147 -78 6 0 12 -4 12 -8 0 -5
32 -14 71 -21 60 -11 68 -15 53 -26 -17 -12 -16 -13 2 -22 10 -6 24 -8 31 -6
6 2 14 -1 18 -6 3 -6 21 -11 40 -11 19 0 37 -5 40 -10 4 -6 15 -8 25 -5 13 4
19 -1 24 -25 3 -18 10 -29 16 -25 6 3 24 -1 41 -9 17 -9 47 -18 68 -22 20 -4
42 -12 50 -18 11 -8 13 -8 7 2 -5 9 4 12 33 12 33 0 41 -3 41 -19 0 -12 9 -20
28 -24 15 -3 41 -17 57 -31 17 -14 42 -26 57 -26 15 0 30 -4 33 -10 3 -5 18
-10 32 -10 16 0 27 -7 30 -19 4 -15 21 -21 84 -31 51 -8 79 -17 79 -25 0 -7
17 -16 37 -20 21 -4 40 -10 43 -13 3 -4 23 -16 44 -27 91 -47 111 -58 116 -65
3 -5 23 -11 45 -15 22 -4 58 -13 80 -20 22 -8 52 -16 68 -19 l27 -6 0 199 0
200 -37 7 c-21 4 -53 8 -70 8 -18 1 -33 4 -33 9 0 4 -10 7 -22 7 -26 0 -50 13
-49 26 1 4 -25 9 -57 10 -32 1 -68 6 -79 13 -12 6 -34 11 -50 11 -31 1 -67 23
-55 35 4 4 -4 5 -17 2 -14 -3 -30 -2 -37 4 -8 6 -14 6 -18 0 -4 -5 -21 -2 -44
9 -20 9 -58 21 -84 24 -27 4 -60 17 -75 30 -40 33 -64 38 -97 21 -16 -9 -32
-12 -35 -8 -15 21 -64 44 -82 38 -11 -4 -25 -2 -32 3 -7 5 -35 12 -63 14 -28
3 -66 12 -85 22 -19 9 -54 20 -77 23 -24 3 -46 12 -49 19 -6 15 -64 34 -104
34 -16 0 -30 7 -33 16 -6 15 -18 16 -91 10 -48 -3 -93 -2 -103 3 -32 18 -77
28 -97 22z"/>
<path d="M5380 2130 c0 -5 5 -10 10 -10 6 0 10 5 10 10 0 6 -4 10 -10 10 -5 0
-10 -4 -10 -10z"/>
<path d="M1360 1975 c-13 -15 -6 -85 8 -85 26 1 48 47 37 80 -8 24 -28 26 -45
5z m39 -37 c1 -5 -6 -8 -14 -8 -16 0 -19 9 -8 36 6 16 7 16 14 -2 4 -10 8 -22
8 -26z"/>
<path d="M5271 1883 c0 -4 4 -17 9 -28 8 -19 9 -19 9 2 1 12 -3 25 -9 28 -5 3
-10 3 -9 -2z"/>
<path d="M5222 1839 c-1 -9 -5 -32 -8 -50 -4 -28 -3 -31 6 -16 6 9 9 32 7 50
-2 17 -5 25 -5 16z"/>
<path d="M1400 1649 c0 -5 5 -7 10 -4 6 3 10 8 10 11 0 2 -4 4 -10 4 -5 0 -10
-5 -10 -11z"/>
<path d="M1457 1611 c-4 -17 -3 -21 5 -13 5 5 8 16 6 23 -3 8 -7 3 -11 -10z"/>
<path d="M1377 1503 c-4 -3 -7 -16 -6 -27 0 -19 1 -19 10 3 10 24 8 36 -4 24z"/>
<path d="M1494 1403 c-3 -21 -12 -42 -18 -48 -17 -14 -28 -62 -16 -70 5 -3 10
-15 10 -26 0 -11 4 -18 9 -15 5 3 14 -1 21 -9 7 -8 9 -15 4 -15 -5 0 -1 -7 8
-14 10 -7 18 -27 20 -44 1 -17 6 -29 10 -26 4 3 5 11 1 19 -3 9 2 26 11 40 11
17 13 25 4 25 -7 0 -6 5 4 13 9 6 18 29 20 50 4 35 2 37 -24 37 -28 0 -39 -15
-16 -22 7 -3 9 -14 5 -30 -5 -20 -12 -25 -26 -21 -12 3 -17 11 -14 20 3 8 1
18 -5 22 -15 9 -20 57 -4 54 8 -2 12 12 12 47 0 59 -7 65 -16 13z"/>
<path d="M5067 1403 c-8 -15 -31 -88 -32 -105 -1 -10 -4 -21 -8 -24 -3 -4 1
-13 9 -21 8 -9 17 -13 20 -11 2 3 9 40 14 83 9 73 8 98 -3 78z"/>
<path d="M1530 1100 c0 -11 4 -20 8 -20 4 0 8 9 9 20 1 11 -2 20 -8 20 -5 0
-9 -9 -9 -20z"/>
<path d="M5318 753 c-9 -2 -19 -16 -23 -30 -6 -27 1 -504 11 -640 l6 -83 563
0 563 0 -6 42 c-3 24 -12 48 -21 54 -27 21 38 25 134 9 50 -9 97 -16 105 -16
62 -1 133 -13 145 -25 9 -9 23 -12 40 -8 14 3 31 2 38 -4 7 -6 39 -12 70 -13
32 -1 70 -9 85 -17 18 -10 72 -16 170 -19 l142 -4 0 174 0 175 -27 7 c-16 5
-35 9 -43 11 -88 19 -123 25 -170 30 -30 3 -57 10 -58 15 -2 5 -8 6 -13 3 -6
-3 -15 -1 -22 4 -7 6 -23 10 -37 11 -14 0 -56 5 -95 11 -38 7 -77 13 -85 14
-9 1 -20 5 -26 9 -6 3 -35 11 -65 16 -30 5 -72 14 -95 20 -23 6 -56 11 -75 12
-19 1 -63 10 -99 19 -113 31 -207 50 -243 50 -20 0 -38 4 -41 9 -3 4 -29 11
-57 15 -28 4 -58 11 -67 15 -16 8 -126 35 -187 46 -160 28 -192 34 -205 39 -8
2 -45 7 -83 10 -37 3 -78 13 -91 21 -22 15 -103 25 -138 18z"/>
<path d="M779 556 c-2 -3 -42 -12 -89 -21 -47 -9 -123 -28 -170 -41 -47 -13
-96 -26 -110 -28 -14 -3 -50 -14 -80 -25 -61 -21 -136 -41 -252 -66 l-78 -17
0 -179 0 -179 375 0 c354 0 375 1 375 18 0 10 4 22 9 28 5 5 16 97 25 204 9
107 19 216 22 241 4 32 1 49 -9 57 -7 7 -16 10 -18 8z"/>
<path d="M4025 200 c-3 -5 -1 -10 4 -10 6 0 11 5 11 10 0 6 -2 10 -4 10 -3 0
-8 -4 -11 -10z"/>
<path d="M4637 203 c-4 -3 -7 -11 -7 -17 0 -6 5 -5 12 2 6 6 9 14 7 17 -3 3
-9 2 -12 -2z"/>
<path d="M1178 59 c-10 -6 -18 -21 -18 -34 0 -20 5 -25 25 -25 26 0 31 16 17
52 -5 13 -11 14 -24 7z"/>
</g>
</svg>
